<?xml version="1.0" encoding="UTF-8" standalone="no"?>
<!-- Created with Inkscape (http://www.inkscape.org/) -->
<svg xmlns:inkscape="http://www.inkscape.org/namespaces/inkscape" xmlns:rdf="http://www.w3.org/1999/02/22-rdf-syntax-ns#" xmlns="http://www.w3.org/2000/svg" xmlns:xlink="http://www.w3.org/1999/xlink" xmlns:ns1="http://sozi.baierouge.fr" xmlns:cc="http://creativecommons.org/ns#" xmlns:sodipodi="http://sodipodi.sourceforge.net/DTD/sodipodi-0.dtd" xmlns:dc="http://purl.org/dc/elements/1.1/" id="svg2" xml:space="preserve" viewBox="0 0 32.596 17.777" version="1.1" inkscape:version="0.91 r13725">
  <defs id="defs6">
    <linearGradient id="linearGradient24" y2="17.363" gradientUnits="userSpaceOnUse" x2="44.916" gradientTransform="matrix(.57968 .00023988 -.00031502 -.43104 .01176 13.928)" y1="17.363" x1="-.0088">
      <stop id="stop26" style="stop-color:#a0a1a3" offset="0"/>
      <stop id="stop28" style="stop-color:#78797a" offset="1"/>
    </linearGradient>
    <linearGradient id="linearGradient42" y2="-10.218" gradientUnits="userSpaceOnUse" x2=".98080" gradientTransform="matrix(-.56072 .1092 .1468 .41704 .01168 13.928)" y1="-10.218" x1="-48.19">
      <stop id="stop44" style="stop-color:#cccccc" offset="0"/>
      <stop id="stop46" style="stop-color:#ffffff" offset="1"/>
    </linearGradient>
    <linearGradient id="linearGradient60" y2="16.211" gradientUnits="userSpaceOnUse" x2="37.633" gradientTransform="matrix(.57968 -.00026141 .00036757 -.43104 -.26864 13.928)" y1="16.211" x1="-3.6226">
      <stop id="stop62" style="stop-color:#cccccc" offset="0"/>
      <stop id="stop64" style="stop-color:#ffffff" offset="1"/>
    </linearGradient>
  </defs>
  <g id="g10" transform="matrix(1.25 0 0 -1.25 0 17.777)">
    <g id="g12">
      <g id="g14">
        <g id="g16">
          <g id="g22">
            <path id="path30" style="fill-rule:evenodd;fill:url(#linearGradient24)" d="m23.082 10.846c2.281-1.293 3.254-2.832 2.926-4.613-0.348-1.781-1.903-3.277-4.664-4.484-2.785-1.219-5.973-1.801-9.567-1.746-3.574 0.058-6.511 0.742-8.808 2.05-2.281 1.293-3.246 2.828-2.899 4.61 0.328 1.785 1.883 3.277 4.664 4.484 2.786 1.223 5.961 1.805 9.536 1.746 3.574-0.07 6.511-0.754 8.812-2.047z" inkscape:connector-curvature="0"/>
          </g>
        </g>
      </g>
      <g id="g32">
        <g id="g34">
          <g id="g40">
            <path id="path48" style="fill-rule:evenodd;fill:url(#linearGradient42)" d="m23.082 10.956c2.301-1.223 3.273-2.668 2.926-4.336-0.348-1.664-1.903-3.067-4.664-4.199-2.785-1.137-5.961-1.676-9.535-1.618-3.594 0.055-6.532 0.696-8.813 1.918-2.301 1.219-3.273 2.664-2.926 4.332 0.328 1.664 1.883 3.067 4.664 4.203 2.786 1.149 5.961 1.696 9.536 1.637 3.574-0.07 6.511-0.719 8.812-1.937z" inkscape:connector-curvature="0"/>
          </g>
        </g>
      </g>
      <g id="g50">
        <g id="g52">
          <g id="g58">
            <path id="path66" style="fill-rule:evenodd;fill:url(#linearGradient60)" d="m22.309 10.374c2.105-1.036 3.003-2.25 2.695-3.645-0.309-1.394-1.738-2.566-4.289-3.512-2.551-0.949-5.457-1.394-8.723-1.336-3.285 0.055-5.98 0.594-8.086 1.614-2.105 1.023-3.008 2.234-2.695 3.644 0.328 1.395 1.758 2.567 4.289 3.516 2.551 0.945 5.469 1.391 8.75 1.336 3.285-0.059 5.973-0.598 8.059-1.617z" inkscape:connector-curvature="0"/>
          </g>
        </g>
      </g>
      <path id="path68" style="fill-rule:evenodd;fill:#fcf19f" d="m5.609 11.678c-0.14 0.043-0.363 0.075-0.668 0.098-0.351-0.023-0.625-0.023-0.812 0 0.07 0.258 0.293 0.355 0.672 0.289 0.304-0.062 0.574-0.191 0.808-0.387z" inkscape:connector-curvature="0"/>
      <path id="path70" style="fill-rule:evenodd;fill:#b6181f" d="m19.32 11.292h0.492c0.258-0.348 0.399-0.539 0.422-0.582v-0.293h-0.527v0.195c-0.047 0.281-0.141 0.41-0.281 0.387-0.024 0.043-0.082 0.074-0.18 0.097h-0.246c-0.141 0.043-0.129 0.075 0.035 0.098 0.215 0 0.309 0.031 0.285 0.098z" inkscape:connector-curvature="0"/>
      <path id="path72" style="fill-rule:evenodd;fill:#b6181f" d="m19.426 10.225c-0.235 0.063-0.516 0.223-0.848 0.485 0.024 0.105 0.082 0.128 0.176 0.062 0.094-0.062 0.176-0.086 0.25-0.062 0.047 0 0.094-0.024 0.141-0.067 0.046-0.043 0.105-0.055 0.175-0.031 0-0.066 0.106-0.098 0.317-0.098 0-0.019-0.024-0.066-0.071-0.129-0.046-0.043-0.058-0.097-0.035-0.16h-0.105z" inkscape:connector-curvature="0"/>
      <path id="path74" style="fill-rule:evenodd;fill:#fcf19f" d="m9.91 10.514c0.047 0.11 0.164 0.129 0.352 0.067 0.093-0.047 0.211-0.098 0.351-0.164-0.07-0.106-0.175-0.118-0.316-0.032-0.188 0.11-0.317 0.153-0.387 0.129z" inkscape:connector-curvature="0"/>
      <path id="path76" style="fill-rule:evenodd;fill:#f6de6f" d="m13.855 9.835c-0.187-0.02-0.339 0.035-0.457 0.164-0.117 0.129-0.128 0.234-0.035 0.324 0.024-0.09 0.106-0.164 0.246-0.227 0.164-0.066 0.246-0.152 0.246-0.261z" inkscape:connector-curvature="0"/>
      <path id="path78" style="fill-rule:evenodd;fill:#f6da31" d="m21.082 9.479c0.07-0.105 0.176-0.148 0.316-0.129 0-0.062 0.106-0.094 0.317-0.094l0.316 0.094c0-0.086 0.129-0.16 0.387-0.226 0.211-0.043 0.297-0.149 0.25-0.321-0.117-0.043-0.238-0.043-0.352 0-0.144 0.063-0.238 0.098-0.285 0.098h-0.422c-0.164-0.023-0.304 0-0.421 0.062-0.094 0.215-0.235 0.313-0.422 0.293v0.094l0.105 0.391 0.211-0.262z" inkscape:connector-curvature="0"/>
      <path id="path80" style="fill-rule:evenodd;fill:#f6de6f" d="m22.562 8.413c0.024 0.023 0.071 0.078 0.141 0.164s0.152 0.129 0.246 0.129c0-0.129-0.047-0.227-0.14-0.293-0.047-0.063-0.129-0.129-0.247-0.192v0.192z" inkscape:connector-curvature="0"/>
      <path id="path82" style="fill-rule:evenodd;fill:#f6da31" d="m16.781 8.026c0.094 0 0.164 0.066 0.211 0.195 0.141-0.023 0.34-0.109 0.602-0.258 0.234-0.128 0.457-0.207 0.668-0.226 0-0.172-0.071-0.27-0.211-0.289-0.211-0.024-0.422 0.043-0.633 0.191-0.238 0.129-0.449 0.196-0.637 0.196v0.191z" inkscape:connector-curvature="0"/>
      <path id="path84" style="fill-rule:evenodd;fill:#f6da31" d="m16.57 7.835c-0.047-0.086-0.199-0.122-0.457-0.098-0.304 0.019-0.492 0.019-0.566 0 0-0.109 0.074-0.172 0.211-0.195h0.426v-0.094h-0.528c-0.168-0.024-0.344 0.019-0.531 0.129-0.187 0.105-0.363 0.16-0.527 0.16v0.098c0.093 0 0.164 0.062 0.211 0.191 0.164-0.129 0.621-0.191 1.375-0.191h0.386z" inkscape:connector-curvature="0"/>
      <path id="path86" style="fill-rule:evenodd;fill:#f6de6f" d="m12.73 7.542h0.106c0.07-0.086 0.023-0.192-0.141-0.321-0.234-0.175-0.367-0.293-0.386-0.355-0.094 0.043-0.129 0.105-0.11 0.191v0.098l0.531 0.387z" inkscape:connector-curvature="0"/>
      <path id="path88" style="fill-rule:evenodd;fill:#b6181f" d="m15.656 7.444h0.528c0-0.063-0.036-0.129-0.106-0.191-0.308-0.368-0.66-0.692-1.058-0.969h-0.211c-0.094 0.172-0.129 0.332-0.106 0.48 0.117-0.019 0.211 0.024 0.281 0.129 0.094 0.11 0.176 0.164 0.246 0.164 0.188 0.086 0.329 0.215 0.426 0.387z" inkscape:connector-curvature="0"/>
      <path id="path90" style="fill-rule:evenodd;fill:#f6da31" d="m19.426 6.768c-0.117 0-0.27 0.051-0.457 0.16-0.168 0.106-0.328 0.153-0.496 0.129 0.093 0.239 0.281 0.313 0.566 0.227 0.164-0.024 0.387-0.098 0.668-0.227 0.023-0.086-0.023-0.14-0.141-0.16-0.093-0.023-0.14-0.066-0.14-0.129z" inkscape:connector-curvature="0"/>
      <path id="path92" style="fill-rule:evenodd;fill:#f6da31" d="m13.363 6.671c-0.093-0.067-0.222-0.086-0.386-0.067-0.188 0.024-0.34 0.012-0.457-0.031 0.187 0.324 0.468 0.355 0.843 0.098z" inkscape:connector-curvature="0"/>
      <path id="path94" style="fill-rule:evenodd;fill:#77a32f" d="m19.32 4.862c-0.023 0-0.175-0.024-0.461-0.066-0.14-0.043-0.234 0.011-0.281 0.16 0.305 0.043 0.484 0.14 0.531 0.293 0.141-0.067 0.246-0.164 0.317-0.293-0.094 0-0.129-0.032-0.106-0.094z" inkscape:connector-curvature="0"/>
      <path id="path96" style="fill-rule:evenodd;fill:#732f20" d="m15.656 4.956v0.097c0.188-0.019 0.352-0.105 0.492-0.257l0.247-0.418h-0.106c-0.281 0.148-0.492 0.343-0.633 0.578z" inkscape:connector-curvature="0"/>
      <path id="path98" style="fill-rule:evenodd;fill:#ffeba6" d="m3.109 9.835c0.141-0.063 0.293-0.215 0.457-0.45 0.188-0.257 0.34-0.422 0.457-0.484 0.118 0.172 0.024 0.418-0.281 0.742-0.281 0.32-0.492 0.387-0.633 0.192-0.281 0.152-0.457 0.378-0.527 0.679-0.215 0.043-0.32-0.062-0.32-0.32-0.02-0.238 0.015-0.422 0.105-0.551 1.012-1.398 3.172-2.551 6.485-3.457h0.105c0.117-0.195 0.469-0.312 1.059-0.355h0.105c-0.023-0.172-0.48-0.098-1.375 0.226-0.937 0.364-1.504 0.473-1.691 0.321-0.328 0.085-0.563 0.183-0.703 0.293 0.093 0.019 0.199 0 0.316-0.067 0.094-0.043 0.199-0.051 0.316-0.031-0.257 0.148-0.742 0.344-1.445 0.582-0.656 0.215-1.129 0.41-1.41 0.582 0.094-0.086 0.129-0.184 0.105-0.289-0.89 0.558-1.539 1.183-1.937 1.871-0.469 0.777-0.516 1.465-0.141 2.07 0.235 0.387 0.965 0.903 2.184 1.551 1.176 0.645 2.117 1.023 2.82 1.129 1.692 0.238 3.453 0.195 5.285-0.129 1.621-0.301 3.067-0.773 4.336-1.422-0.07 0-0.34 0.078-0.812 0.227-0.469 0.152-0.856 0.207-1.16 0.164-0.024-0.196 0.148-0.293 0.527-0.293-0.024-0.043-0.035-0.141-0.035-0.289 0-0.086-0.043-0.168-0.125-0.242 0.156 0.113 0.324 0.148 0.512 0.113 0.21-0.067 0.339-0.207 0.386-0.422-0.234 0.109-0.386 0.172-0.457 0.195-0.117 0.02-0.281-0.023-0.492-0.129 0.023-0.086 0.082-0.109 0.176-0.066 0.14 0.086 0.258 0.109 0.351 0.066 0.024-0.129-0.047-0.207-0.211-0.226-0.187-0.043-0.293-0.086-0.316-0.129 0-0.129 0.059-0.16 0.176-0.098 0.047 0.028 0.082 0.055 0.105 0.082-0.058-0.09-0.199-0.191-0.422-0.308-0.328-0.192-0.562-0.246-0.707-0.16 0.024-0.215-0.058-0.379-0.246-0.485-0.047-0.023-0.246-0.086-0.597-0.195-0.071 0.066-0.082 0.164-0.036 0.293 0.024 0.105-0.023 0.172-0.14 0.191-0.281-0.238-0.567-0.301-0.848-0.191-0.14-0.024-0.199-0.086-0.176-0.195 0.047-0.153 0.036-0.247-0.035-0.29-0.14-0.023-0.246 0-0.316 0.063-0.094 0.086-0.164 0.129-0.215 0.129 0.144-0.149 0.074-0.215-0.211-0.192 0.07-0.109 0.098-0.218 0.07-0.324-0.019-0.109-0.011-0.195 0.039-0.258 0.258 0 0.364 0.098 0.317 0.289 0.14-0.019 0.164-0.117 0.07-0.289-0.094-0.171-0.012-0.269 0.246-0.289-0.187-0.152-0.48-0.367-0.883-0.648-0.375-0.238-0.738-0.399-1.089-0.484 0.14-0.516 0.14-0.872 0-1.067 0.093 0.024 0.246 0.043 0.457 0.067 0.164 0.019 0.246 0.093 0.246 0.222 0.023-0.258 0.234-0.32 0.636-0.191 0 0.043-0.05 0.105-0.144 0.191-0.07 0.067-0.094 0.164-0.07 0.293 0.05 0.11 0.082 0.074 0.105-0.097 0.023-0.196 0.059-0.29 0.109-0.29 0.188 0.086 1.137 0.981 2.852 2.68 1.199 1.207 2.516 1.692 3.949 1.453-1.625-0.039-3.172-0.937-4.637-2.695 0.028 0.066 0.032 0.137 0.02 0.211-0.047-0.067-0.246-0.293-0.598-0.68-0.214-0.258-0.425-0.422-0.636-0.484 0.164-0.129 0.316-0.098 0.461 0.097 0.183 0.258 0.339 0.387 0.453 0.387-0.09-0.195-0.289-0.422-0.598-0.679h-0.105c-0.188 0.019-0.387-0.043-0.598-0.196-0.328-0.234-0.516-0.363-0.567-0.387 0.094-0.042 0.204-0.042 0.321 0 0.183 0.129 0.293 0.196 0.316 0.196v-0.098c-0.144-0.215-0.484-0.324-1.023-0.324-0.586 0-0.942-0.051-1.059-0.16-1.48 0.344-3.16 0.863-5.039 1.551 0.024 0.062 0.082 0.074 0.176 0.031 0.141-0.063 0.262-0.074 0.355-0.031-0.636 0.238-1.117 0.429-1.445 0.582-0.586 0.253-0.937 0.632-1.055 1.125zm3.032 3.461c0.632 0.171 1.55 0.246 2.746 0.222 0.355 0 1.422-0.043 3.207-0.129-0.656 0.41-1.668 0.614-3.032 0.614-1.429 0-2.406-0.235-2.921-0.707zm-1.34-1.231c-0.375 0.066-0.602-0.031-0.672-0.289 0.191-0.023 0.461-0.023 0.812 0 0.305-0.023 0.532-0.055 0.672-0.098-0.238 0.196-0.508 0.325-0.812 0.387zm5.812-1.648c-0.14 0.066-0.258 0.117-0.351 0.164-0.188 0.062-0.305 0.043-0.352-0.067 0.07 0.02 0.199-0.019 0.387-0.129 0.141-0.086 0.246-0.074 0.316 0.032zm-0.703-2.68c-0.117-0.066-0.269-0.109-0.457-0.129-0.164 0-0.297-0.055-0.391-0.16 0.403-0.047 0.719 0.082 0.954 0.387-0.047 0.043-0.141 0.074-0.282 0.093-0.14 0.047-0.222 0.012-0.246-0.093h0.246c0.094-0.024 0.153-0.055 0.176-0.098zm5.531 2.777c0.215 0.02 0.352 0.117 0.422 0.293-0.422-0.176-0.715-0.359-0.879-0.551-0.211-0.214-0.058-0.128 0.457 0.258z" inkscape:connector-curvature="0"/>
      <path id="path100" style="fill-rule:evenodd;fill:#fdf8cf" d="m5.082 7.155 0.531-0.129c0.235-0.066 0.375-0.152 0.422-0.258-0.519 0.086-0.836 0.215-0.953 0.387z" inkscape:connector-curvature="0"/>
      <path id="path102" style="fill-rule:evenodd;fill:#fdf8cf" d="m7.16 6.378c0.426-0.02 0.778-0.149 1.059-0.387l-0.567 0.16c-0.234 0.066-0.398 0.141-0.492 0.227z" inkscape:connector-curvature="0"/>
      <path id="path104" style="fill-rule:evenodd;fill:#fdf8cf" d="m16.887 12.518c0.328-0.066 1.211-0.344 2.644-0.84-0.304 0.043-0.621 0.043-0.953 0 0.117 0.129-0.094 0.258-0.633 0.387-0.613 0.152-0.965 0.301-1.058 0.453z" inkscape:connector-curvature="0"/>
      <path id="path106" style="fill-rule:evenodd;fill:#fadf88" d="m19.32 11.292c-0.211 0.019-0.39-0.012-0.531-0.098h-0.633c-0.187-0.043-0.258-0.141-0.211-0.293-1.222 0-2.359-0.656-3.418-1.969-1.199-1.484-2.218-2.336-3.066-2.554 0.117-0.129 0.387-0.215 0.812-0.258 0.516-0.02 0.844-0.063 0.985-0.129-0.047-0.172-0.012-0.258 0.105-0.258 0-0.148-0.175-0.184-0.527-0.098 0.023-0.148 0.258-0.179 0.703-0.093l-0.105-0.293c0.046-0.02 0.152 0 0.316 0.066 0.094 0.043 0.129-0.012 0.105-0.164-0.351 0.043-0.609 0.086-0.773 0.129-0.258 0.086-0.445 0.207-0.562 0.355-0.071 0-0.11-0.062-0.11-0.191-1.855 0.859-4.226 1.625-7.117 2.293 0.352-0.258 0.93-0.527 1.727-0.809 0.918-0.3 1.527-0.55 1.832-0.742-3.313 0.906-5.473 2.059-6.485 3.457-0.09 0.129-0.125 0.313-0.101 0.551 0 0.258 0.101 0.363 0.316 0.32 0.07-0.301 0.246-0.527 0.527-0.679 0.118-0.493 0.469-0.872 1.059-1.129 0.328-0.149 0.809-0.344 1.445-0.582-0.093-0.043-0.211-0.032-0.351 0.031-0.098 0.043-0.153 0.031-0.176-0.031 1.879-0.688 3.559-1.207 5.035-1.551 0.121 0.109 0.473 0.16 1.059 0.16 0.539 0 0.882 0.109 1.023 0.324-0.023-0.086 0.012-0.148 0.106-0.195 0.023 0.066 0.152 0.184 0.386 0.355 0.164 0.129 0.211 0.239 0.141 0.325 0.309 0.257 0.508 0.484 0.598 0.679v0.098c1.55 2.004 3.195 3.023 4.933 3.066-1.429 0.239-2.746-0.246-3.945-1.453-1.715-1.699-2.664-2.594-2.856-2.679-0.046 0-0.082 0.093-0.105 0.289-0.023 0.171-0.059 0.207-0.106 0.097-0.023-0.129 0-0.226 0.071-0.293 0.094-0.086 0.14-0.148 0.14-0.191-0.398-0.129-0.609-0.067-0.632 0.191 0-0.129-0.082-0.203-0.246-0.222-0.211-0.024-0.364-0.043-0.458-0.067 0.141 0.196 0.141 0.551 0 1.067 0.352 0.086 0.715 0.25 1.09 0.484 0.399 0.281 0.696 0.496 0.883 0.648-0.258 0.02-0.34 0.118-0.246 0.29 0.094 0.171 0.07 0.269-0.07 0.289 0.047-0.192-0.059-0.289-0.321-0.289-0.046 0.062-0.058 0.148-0.035 0.257 0.024 0.11 0 0.215-0.07 0.325 0.285-0.024 0.355 0.043 0.211 0.191 0.047 0 0.117-0.043 0.215-0.129 0.07-0.062 0.175-0.086 0.316-0.062 0.07 0.043 0.082 0.136 0.035 0.289-0.023 0.109 0.035 0.171 0.176 0.195 0.281-0.109 0.563-0.047 0.844 0.191 0.121-0.019 0.164-0.086 0.144-0.191-0.047-0.129-0.035-0.227 0.032-0.293 0.355 0.109 0.554 0.172 0.601 0.195 0.188 0.106 0.27 0.27 0.246 0.485 0.141-0.086 0.375-0.032 0.707 0.16 0.219 0.117 0.364 0.219 0.422 0.308-0.023-0.027-0.058-0.054-0.105-0.082-0.117-0.062-0.176-0.031-0.176 0.098 0.023 0.043 0.129 0.086 0.316 0.129 0.164 0.019 0.235 0.098 0.211 0.226-0.094 0.043-0.211 0.02-0.351-0.066-0.094-0.043-0.153-0.019-0.176 0.066 0.211 0.106 0.375 0.149 0.492 0.129 0.07-0.023 0.223-0.086 0.457-0.195-0.047 0.215-0.176 0.356-0.387 0.422-0.183 0.035-0.355 0-0.511-0.113 0.082 0.074 0.125 0.152 0.125 0.242 0 0.148 0.011 0.246 0.035 0.289-0.379 0-0.555 0.098-0.531 0.293 0.308 0.043 0.695-0.012 1.164-0.164 0.468-0.149 0.742-0.227 0.812-0.227h0.106c0.093-0.148 0.445-0.301 1.054-0.453 0.543-0.125 0.754-0.254 0.637-0.387 0.328 0.043 0.645 0.043 0.949 0 0.071-0.105 0.199-0.14 0.387-0.093 0.023-0.047 0.117-0.121 0.285-0.227 0.141-0.066 0.149-0.121 0.031-0.164-0.07 0.066-0.211 0.098-0.422 0.098h-0.492v0.004zm-16.211-1.457c0.141 0.195 0.352 0.128 0.633-0.192 0.305-0.324 0.399-0.57 0.281-0.742-0.117 0.062-0.269 0.223-0.457 0.484-0.164 0.235-0.316 0.387-0.457 0.45zm9.375 0.261c-0.074-0.066-0.097-0.152-0.074-0.261 0.168 0 0.238-0.063 0.215-0.192 0.398 0.02 0.574 0.149 0.527 0.387-0.093 0.023-0.129 0.086-0.105 0.195-0.211 0-0.352 0.031-0.422 0.098 0-0.024-0.047-0.098-0.141-0.227zm0.914-0.097c0.118-0.129 0.27-0.184 0.457-0.164 0 0.109-0.082 0.195-0.246 0.261-0.14 0.063-0.222 0.137-0.246 0.227-0.093-0.09-0.082-0.195 0.035-0.324z" inkscape:connector-curvature="0"/>
      <path id="path108" style="fill-rule:evenodd;fill:#d4ac35" d="m4.234 7.444c0.024 0.109-0.011 0.207-0.105 0.293 0.285-0.176 0.754-0.367 1.41-0.582 0.707-0.238 1.188-0.434 1.445-0.586-0.117-0.02-0.222-0.008-0.316 0.035-0.117 0.063-0.223 0.086-0.316 0.063-0.094 0.066-0.2 0.097-0.317 0.097-0.047 0.11-0.187 0.196-0.422 0.258l-0.531 0.129-0.352 0.195c-0.164 0.09-0.328 0.121-0.496 0.098z" inkscape:connector-curvature="0"/>
      <path id="path110" style="fill-rule:evenodd;fill:#ffffff" d="m15.867 10.807c-0.07-0.172-0.211-0.269-0.422-0.293-0.519-0.386-0.672-0.472-0.461-0.258 0.164 0.192 0.457 0.379 0.883 0.551z" inkscape:connector-curvature="0"/>
      <path id="path112" style="fill-rule:evenodd;fill:#ffffff" d="m13.434 8.221c-0.118 0-0.27-0.129-0.457-0.386-0.141-0.196-0.293-0.227-0.457-0.098 0.21 0.062 0.421 0.226 0.632 0.484 0.352 0.387 0.555 0.614 0.602 0.68 0.023-0.133-0.012-0.25-0.109-0.355l-0.211-0.227v-0.098z" inkscape:connector-curvature="0"/>
      <path id="path114" style="fill-rule:evenodd;fill:#ffffff" d="m12.199 7.155c-0.019 0-0.129-0.067-0.316-0.195-0.117-0.043-0.223-0.043-0.317 0 0.047 0.023 0.235 0.152 0.567 0.386 0.211 0.153 0.41 0.219 0.597 0.196l-0.531-0.387z" inkscape:connector-curvature="0"/>
      <path id="path116" style="fill-rule:evenodd;fill:#f5cd53" d="m8.852 6.186c-0.305 0.192-0.914 0.442-1.832 0.742-0.797 0.282-1.375 0.551-1.727 0.809 2.891-0.668 5.262-1.434 7.117-2.293 0 0.125 0.035 0.191 0.106 0.191 0.117-0.148 0.308-0.269 0.566-0.355 0.164-0.043 0.422-0.086 0.773-0.129 0.024 0.152-0.011 0.207-0.105 0.164-0.164-0.066-0.27-0.09-0.316-0.066l0.105 0.289c-0.445-0.086-0.68-0.051-0.703 0.097 0.352-0.086 0.527-0.054 0.527 0.098-0.117 0-0.152 0.086-0.105 0.258-0.141 0.066-0.469 0.109-0.988 0.129-0.422 0.043-0.692 0.129-0.809 0.258 0.844 0.218 1.867 1.066 3.066 2.554 1.055 1.313 2.196 1.969 3.418 1.969-0.047 0.152 0.024 0.25 0.211 0.293h0.317c-0.024-0.152-0.082-0.227-0.176-0.227-0.117 0-0.199-0.023-0.246-0.066l-0.211-0.289h-0.11c-0.117 0.105-0.222 0.172-0.316 0.195-0.281-0.109-0.492-0.273-0.633-0.484-0.093-0.152-0.293-0.313-0.597-0.488-0.098 0.109-0.164 0.066-0.211-0.125-0.051-0.196-0.051-0.348 0-0.454-0.262 0.043-0.403-0.023-0.426-0.195 0-0.148-0.07-0.238-0.211-0.258-0.07 0.02-0.082 0.043-0.035 0.067 0.023 0.082 0.035 0.148 0.035 0.191-0.469-0.238-0.813-0.668-1.024-1.293-0.234-0.711-0.175-1.301 0.18-1.777 0.164-0.559 0.446-0.969 0.844-1.227-0.024-0.066 0.012-0.097 0.105-0.097 0.024-0.086 0.094-0.184 0.215-0.289l-0.109-0.196c-0.047 0-0.07 0.024-0.07 0.067l-0.036 0.129c-0.07-0.024-0.129-0.055-0.175-0.098-0.024-0.043 0-0.074 0.07-0.098-0.117-0.105-0.164-0.086-0.141 0.067 0 0.148 0.047 0.257 0.141 0.32-0.328-0.043-0.809 0.035-1.445 0.227-0.727 0.238-1.254 0.355-1.586 0.355-0.047-0.105 0-0.184 0.144-0.227 0.113-0.019 0.176-0.074 0.176-0.16-0.117-0.019-0.238-0.011-0.352 0.032-0.117 0.042-0.214 0.066-0.285 0.066-0.07 0.043-0.082 0.117-0.035 0.226 0.024 0.106 0 0.192-0.07 0.258-0.281-0.023-0.586 0.043-0.918 0.192-0.352 0.195-0.633 0.293-0.844 0.293h-0.105c-0.305 0.215-0.661 0.332-1.059 0.355h-0.105zm3.668 0.387c0.117 0.043 0.269 0.055 0.457 0.031 0.164-0.019 0.293 0 0.386 0.067-0.375 0.257-0.656 0.226-0.843-0.098z" inkscape:connector-curvature="0"/>
      <path id="path118" style="fill-rule:evenodd;fill:#f6da31" d="m19.145 10.643c-0.051 0.043-0.094 0.067-0.145 0.067-0.047 0.086-0.188 0.148-0.422 0.191-0.07 0-0.152-0.02-0.246-0.063-0.047-0.019-0.105 0-0.176 0.063h-0.105c0.047 0.047 0.129 0.066 0.246 0.066 0.094 0 0.152 0.075 0.176 0.227h0.316c0-0.109 0.07-0.172 0.211-0.195h0.426c0.14 0.023 0.234-0.106 0.281-0.387h-0.387c-0.07-0.024-0.129-0.012-0.175 0.031z" inkscape:connector-curvature="0"/>
      <path id="path120" style="fill-rule:evenodd;fill:#77a32f" d="m19.426 10.999h-0.422c-0.145 0.023-0.215 0.086-0.215 0.195 0.141 0.086 0.32 0.117 0.531 0.098 0.024-0.067-0.07-0.098-0.281-0.098-0.168-0.02-0.18-0.055-0.039-0.098h0.25c0.094-0.019 0.152-0.054 0.176-0.097z" inkscape:connector-curvature="0"/>
      <path id="path122" style="fill-rule:evenodd;fill:#732f20" d="m19.812 11.292c0.211 0 0.352-0.036 0.422-0.098v-0.195c0-0.043 0.024-0.106 0.071-0.192 0.023-0.047 0-0.078-0.071-0.097-0.023 0.043-0.164 0.234-0.422 0.582z" inkscape:connector-curvature="0"/>
      <path id="path124" style="fill-rule:evenodd;fill:#77a32f" d="m18.578 10.71c0.328-0.258 0.613-0.422 0.848-0.485h-0.422c-0.024 0.063-0.129 0.172-0.316 0.324-0.168 0.129-0.204 0.247-0.11 0.352 0.238-0.043 0.379-0.105 0.426-0.191-0.074-0.024-0.152 0-0.25 0.062-0.094 0.066-0.152 0.043-0.176-0.062z" inkscape:connector-curvature="0"/>
      <path id="path126" style="fill-rule:evenodd;fill:#b8952e" d="m20.867 10.323-0.211-0.098c-0.094 0-0.187 0.043-0.281 0.129-0.07 0.063-0.152 0.055-0.246-0.031 0.023-0.067 0.129-0.133 0.316-0.195 0.164-0.043 0.235-0.141 0.211-0.293-0.023 0-0.094 0.054-0.211 0.164-0.093 0.062-0.164 0.043-0.211-0.067-0.023 0.043-0.152 0.121-0.386 0.227-0.188 0.109-0.239 0.195-0.141 0.258h0.527v0.293c0.071 0.019 0.094 0.05 0.071 0.097-0.047 0.082-0.071 0.149-0.071 0.192 0.211 0 0.411-0.067 0.598-0.192 0.211-0.152 0.387-0.238 0.527-0.261 0.024-0.063 0.141-0.192 0.356-0.387 0.14-0.129 0.176-0.27 0.105-0.418 0.024-0.086 0.012-0.176-0.035-0.258-0.051-0.066-0.07-0.141-0.07-0.227-0.215 0-0.32 0.032-0.32 0.098 0.07 0.192 0.093 0.344 0.07 0.449-0.07 0.153-0.125 0.293-0.176 0.422-0.164 0-0.269-0.066-0.316-0.195-0.071 0.023-0.082 0.066-0.035 0.129 0.05 0.066 0.027 0.121-0.071 0.164z" inkscape:connector-curvature="0"/>
      <path id="path128" style="fill-rule:evenodd;fill:#f6de6f" d="m18.156 10.901c0.071-0.063 0.129-0.082 0.176-0.063 0.094 0.043 0.176 0.063 0.246 0.063-0.094-0.105-0.058-0.223 0.11-0.352 0.187-0.152 0.292-0.261 0.316-0.324-0.047 0.063-0.203 0.16-0.461 0.289-0.211 0.129-0.34 0.258-0.387 0.387z" inkscape:connector-curvature="0"/>
      <path id="path130" style="fill-rule:evenodd;fill:#77a32f" d="m18.367 10.225c0.024-0.023 0.117-0.066 0.285-0.129 0.114-0.043 0.2-0.097 0.246-0.164-0.117-0.019-0.132-0.051-0.035-0.097 0.094-0.082 0.141-0.149 0.141-0.192h-0.106c-0.023 0.086-0.132 0.172-0.316 0.258-0.144 0.086-0.215 0.195-0.215 0.324z" inkscape:connector-curvature="0"/>
      <path id="path132" style="fill-rule:evenodd;fill:#f6da31" d="m17.945 10.096c-0.422 0.235-0.812 0.313-1.164 0.227 0.141 0.215 0.352 0.375 0.637 0.484 0.094-0.023 0.199-0.09 0.316-0.195l0.282-0.227c0.117-0.086 0.234-0.14 0.351-0.16 0-0.129 0.071-0.238 0.211-0.324 0.188-0.086 0.293-0.172 0.317-0.258 0.117-0.109 0.117-0.172 0-0.195-0.399 0.301-0.715 0.515-0.95 0.648z" inkscape:connector-curvature="0"/>
      <path id="path134" style="fill-rule:evenodd;fill:#77a32f" d="m17.84 9.87c-0.309 0.019-0.52-0.024-0.637-0.129-0.164 0.019-0.328 0.012-0.492-0.031-0.211-0.047-0.352-0.067-0.422-0.067-0.07 0.067-0.105 0.129-0.105 0.192 0.304 0.175 0.504 0.336 0.597 0.488 0.352 0.086 0.742 0.008 1.164-0.227 0.235-0.133 0.551-0.347 0.95-0.648v-0.098c-0.282 0-0.422-0.031-0.422-0.094-0.141 0-0.375 0.051-0.703 0.161-0.258 0.086-0.52 0.097-0.778 0.031 0.047 0.086 0.176 0.117 0.387 0.098 0.258-0.024 0.414-0.024 0.461 0h0.422c0.047 0.195-0.094 0.3-0.422 0.324zm-0.742-0.035c0.164 0.175 0.234 0.336 0.214 0.488-0.07-0.133-0.25-0.238-0.531-0.324-0.211-0.043-0.304-0.129-0.281-0.258 0 0.086 0.082 0.117 0.246 0.094 0.211-0.02 0.328-0.02 0.352 0z" inkscape:connector-curvature="0"/>
      <path id="path136" style="fill-rule:evenodd;fill:#77a32f" d="m19.32 10.612h0.387v-0.195c-0.094-0.063-0.047-0.149 0.141-0.258 0.234-0.106 0.363-0.18 0.386-0.227v-0.094c-0.093 0-0.187 0.032-0.281 0.094-0.094 0.067-0.176 0.098-0.246 0.098-0.047 0.109-0.109 0.172-0.18 0.195-0.019 0.063-0.011 0.117 0.035 0.16 0.051 0.067 0.071 0.11 0.071 0.129-0.207 0-0.313 0.032-0.313 0.098z" inkscape:connector-curvature="0"/>
      <path id="path138" style="fill-rule:evenodd;fill:#fcf19f" d="m17.383 9.546c-0.215 0.019-0.344-0.012-0.391-0.098s-0.187-0.152-0.422-0.192c0.071-0.109 0.176-0.261 0.317-0.453-0.258 0.149-0.387 0.301-0.387 0.453-0.164-0.132-0.34-0.132-0.527 0-0.047 0.106-0.047 0.258 0 0.45 0.047 0.195 0.117 0.238 0.211 0.129 0-0.063 0.035-0.129 0.105-0.192 0.07 0 0.211 0.02 0.422 0.063 0.164 0.043 0.332 0.054 0.496 0.035 0.211 0.043 0.422 0.008 0.633-0.098v-0.097c-0.047-0.024-0.199-0.024-0.457 0z" inkscape:connector-curvature="0"/>
      <path id="path140" style="fill-rule:evenodd;fill:#fcf19f" d="m15.336 8.803v-0.097c-0.117-0.024-0.211-0.11-0.281-0.258-0.071-0.129-0.153-0.203-0.246-0.227-0.258 0-0.422-0.289-0.497-0.871-0.07-0.582-0.011-1.035 0.18-1.359-0.351 0.476-0.414 1.066-0.18 1.777 0.215 0.625 0.555 1.055 1.024 1.293 0-0.043-0.012-0.109-0.035-0.191-0.047-0.024-0.035-0.047 0.035-0.067z" inkscape:connector-curvature="0"/>
      <path id="path142" style="fill-rule:evenodd;fill:#d4ac35" d="m7.055 6.378c0.187 0.152 0.754 0.043 1.691-0.321 0.895-0.324 1.352-0.398 1.375-0.226 0.211 0 0.492-0.098 0.848-0.293 0.328-0.149 0.633-0.215 0.914-0.192 0.07-0.066 0.094-0.152 0.07-0.258-0.047-0.109-0.035-0.183 0.035-0.226-2.136 0.668-3.394 1.043-3.769 1.129-0.281 0.238-0.633 0.367-1.055 0.387h-0.109z" inkscape:connector-curvature="0"/>
      <path id="path144" style="fill-rule:evenodd;fill:#b6181f" d="m17.098 9.835c-0.02-0.02-0.141-0.02-0.352 0-0.164 0.023-0.246-0.008-0.246-0.094-0.023 0.129 0.07 0.215 0.281 0.258 0.285 0.086 0.461 0.191 0.531 0.324 0.02-0.152-0.05-0.313-0.214-0.488z" inkscape:connector-curvature="0"/>
      <path id="path146" style="fill-rule:evenodd;fill:#f6de6f" d="m20.656 10.225c0.168-0.043 0.215-0.172 0.145-0.39-0.047-0.235-0.133-0.301-0.246-0.192-0.028 0.129-0.133 0.192-0.321 0.192v0.097c0.047 0.11 0.118 0.129 0.215 0.067 0.117-0.11 0.184-0.164 0.211-0.164 0.024 0.152-0.047 0.25-0.211 0.293-0.191 0.062-0.297 0.128-0.32 0.195 0.098 0.086 0.18 0.094 0.25 0.031 0.09-0.086 0.187-0.129 0.277-0.129z" inkscape:connector-curvature="0"/>
      <path id="path148" style="fill-rule:evenodd;fill:#ffeba6" d="m12.625 9.643c0.023 0.129-0.047 0.192-0.215 0.192-0.023 0.109 0 0.195 0.074 0.261 0.094 0.129 0.141 0.203 0.141 0.227 0.07-0.067 0.211-0.098 0.422-0.098-0.024-0.109 0.012-0.172 0.105-0.195 0.047-0.238-0.129-0.367-0.527-0.387z" inkscape:connector-curvature="0"/>
      <path id="path150" style="fill-rule:evenodd;fill:#fdf8cf" d="m19.707 10.03c0.07 0 0.152-0.031 0.246-0.098 0.094-0.062 0.188-0.097 0.281-0.097-0.019-0.215-0.187-0.247-0.492-0.094-0.304 0.129-0.316 0.222-0.035 0.289z" inkscape:connector-curvature="0"/>
      <path id="path152" style="fill-rule:evenodd;fill:#fcf19f" d="m20.59 9.479c0.066-0.086 0.129-0.129 0.176-0.129v-0.094c0.187 0.02 0.328-0.078 0.422-0.293h-0.211c-0.024 0.129-0.094 0.161-0.215 0.098-0.117-0.066-0.149-0.152-0.106-0.258-0.164 0.043-0.199 0.098-0.105 0.16 0.14 0.086 0.211 0.153 0.211 0.196-0.02 0.086-0.071 0.117-0.141 0.097-0.07-0.066-0.129-0.097-0.176-0.097-0.093 0-0.082 0.043 0.035 0.129 0.141 0.062 0.129 0.117-0.035 0.16 0.024 0.109 0.071 0.117 0.145 0.031z" inkscape:connector-curvature="0"/>
      <path id="path154" style="fill-rule:evenodd;fill:#77a32f" d="m21.715 9.256c0 0.086 0.023 0.161 0.07 0.223 0.047 0.086 0.059 0.172 0.035 0.262h0.211v-0.391l-0.316-0.094z" inkscape:connector-curvature="0"/>
      <path id="path156" style="fill-rule:evenodd;fill:#f6de6f" d="m18.578 4.956c0.047-0.149 0.141-0.203 0.281-0.16 0.286 0.042 0.438 0.066 0.461 0.066l-0.39-0.227c-0.164-0.086-0.282-0.175-0.352-0.257 0.027 0.082 0.012 0.171-0.035 0.257s-0.07 0.161-0.07 0.227c-0.024 0.062 0.011 0.094 0.105 0.094z" inkscape:connector-curvature="0"/>
      <path id="path158" style="fill-rule:evenodd;fill:#f6de6f" d="m19.531 9.061c-0.445 0.172-0.801 0.235-1.058 0.195 0 0.063 0.144 0.094 0.422 0.094v0.098c0.121 0.019 0.121 0.086 0 0.195h0.109c0.234-0.129 0.445-0.164 0.633-0.097-0.094-0.067-0.117-0.153-0.071-0.258 0.024-0.086 0.012-0.164-0.035-0.227z" inkscape:connector-curvature="0"/>
      <path id="path160" style="fill-rule:evenodd;fill:#77a32f" d="m16.887 8.706c0.14-0.086 0.211-0.149 0.211-0.196 0.234-0.019 0.472 0.036 0.707 0.164 0.14 0.063 0.328 0.161 0.562 0.289v-0.062c-0.117-0.133-0.222-0.195-0.316-0.195l-0.422-0.196c-0.164-0.086-0.34-0.117-0.527-0.093-0.071 0.105-0.145 0.171-0.215 0.191v0.098z" inkscape:connector-curvature="0"/>
      <path id="path162" style="fill-rule:evenodd;fill:#f6da31" d="m16.887 8.608c0.07-0.02 0.14-0.086 0.211-0.191 0.187-0.024 0.367 0.007 0.531 0.093l0.422 0.196c0.164-0.215 0.082-0.368-0.246-0.453-0.309-0.063-0.578-0.043-0.813 0.066-0.328 0.062-0.562 0.227-0.703 0.484l-0.105-0.129c-0.047-0.066-0.118-0.086-0.211-0.066 0 0.023-0.039 0.055-0.11 0.098 0.121 0.086 0.145 0.172 0.071 0.257-0.09 0.11-0.223 0.141-0.387 0.098 0.023 0.172 0.164 0.235 0.426 0.195 0.187-0.132 0.363-0.132 0.527 0 0-0.152 0.129-0.304 0.387-0.453v-0.195z" inkscape:connector-curvature="0"/>
      <path id="path164" style="fill-rule:evenodd;fill:#b6181f" d="m15.547 8.706c0.023 0.062 0.074 0.086 0.144 0.062 0.094-0.043 0.153-0.062 0.176-0.062 0.071-0.043 0.106-0.075 0.106-0.098 0.093-0.02 0.164 0 0.211 0.066l0.105 0.129c0.141-0.257 0.375-0.422 0.703-0.484-0.019-0.086-0.094-0.184-0.211-0.293v-0.094l-0.211-0.097h-0.386c-0.024 0.062-0.106 0.097-0.246 0.097-0.215-0.023-0.344-0.023-0.387 0 0.117 0.172 0.199 0.301 0.246 0.387 0.094 0.148 0.047 0.281-0.141 0.387h-0.109z" inkscape:connector-curvature="0"/>
      <path id="path166" style="fill-rule:evenodd;fill:#fcf19f" d="m20.555 9.643c-0.098-0.043-0.227-0.16-0.391-0.355-0.141-0.172-0.293-0.282-0.457-0.325 0.047-0.085 0.129-0.093 0.246-0.031 0.07 0.02 0.059-0.019-0.035-0.129 0.141-0.043 0.211 0.012 0.211 0.16 0.004-0.023 0.027-0.097 0.074-0.222 0.024-0.047 0.106-0.09 0.246-0.133-0.14-0.062-0.293-0.031-0.461 0.098-0.14 0.109-0.258 0.109-0.351 0-0.211-0.215-0.457-0.282-0.739-0.192 0.024 0.129-0.046 0.203-0.21 0.227-0.188 0.043-0.297 0.094-0.321 0.16v0.062c0.074 0.172 0.25 0.219 0.531 0.129 0.422-0.086 0.668-0.129 0.739-0.129 0.074 0 0.117 0.043 0.144 0.129 0.047 0.11 0.094 0.164 0.141 0.164-0.024 0.192-0.141 0.344-0.356 0.454-0.089 0.043-0.316 0.117-0.668 0.222-0.046 0.067-0.128 0.121-0.246 0.164-0.164 0.063-0.257 0.106-0.285 0.129-0.113 0.02-0.234 0.074-0.351 0.16l-0.282 0.227h0.106l0.211 0.289h0.109c0.047-0.129 0.176-0.258 0.387-0.387 0.258-0.129 0.41-0.226 0.457-0.289h0.527c0.071-0.023 0.129-0.086 0.18-0.195-0.285-0.067-0.273-0.16 0.035-0.289 0.305-0.153 0.469-0.121 0.492 0.094 0.184 0 0.289-0.063 0.317-0.192z" inkscape:connector-curvature="0"/>
      <path id="path168" style="fill-rule:evenodd;fill:#fdf8cf" d="m20.867 9.741-0.105-0.387c-0.047 0-0.106 0.043-0.176 0.129-0.07 0.082-0.117 0.074-0.141-0.035 0.164-0.043 0.176-0.094 0.035-0.16-0.117-0.086-0.128-0.129-0.035-0.129 0.047 0 0.106 0.031 0.176 0.097 0.07 0.02 0.117-0.011 0.141-0.097 0-0.043-0.071-0.11-0.211-0.196-0.094-0.062-0.059-0.117 0.105-0.16l0.532-0.582v-0.097c-0.118-0.02-0.211 0.011-0.282 0.097-0.097 0.129-0.179 0.196-0.25 0.196-0.07 0.105-0.14 0.171-0.211 0.191-0.14 0.043-0.222 0.086-0.246 0.129-0.047 0.129-0.07 0.203-0.07 0.226 0-0.148-0.074-0.203-0.215-0.16 0.098 0.106 0.109 0.149 0.035 0.129-0.117-0.066-0.199-0.054-0.246 0.031 0.164 0.043 0.317 0.153 0.457 0.325 0.164 0.191 0.297 0.312 0.391 0.355 0.117-0.109 0.199-0.043 0.246 0.192 0.07 0.218 0.023 0.347-0.141 0.386l0.211 0.098c0.094-0.043 0.117-0.098 0.071-0.16-0.047-0.067-0.036-0.11 0.035-0.129 0.047 0.129 0.152 0.191 0.316 0.191 0.047-0.129 0.106-0.269 0.176-0.418 0.023-0.109 0-0.257-0.07-0.453-0.141-0.019-0.247 0.024-0.317 0.129l-0.211 0.262zm-0.101-0.68c0.117 0.063 0.187 0.031 0.211-0.098-0.094-0.085-0.2-0.14-0.317-0.16-0.047 0.106-0.015 0.192 0.106 0.258z" inkscape:connector-curvature="0"/>
      <path id="path170" style="fill-rule:evenodd;fill:#77a32f" d="m20.977 8.963h0.211c0.117-0.062 0.257-0.085 0.421-0.062 0-0.219-0.175-0.348-0.527-0.391 0.07-0.105 0.106-0.203 0.106-0.289l-0.532 0.582c0.121 0.02 0.227 0.075 0.321 0.16z" inkscape:connector-curvature="0"/>
      <path id="path172" style="fill-rule:evenodd;fill:#732f20" d="m21.609 8.901h0.422c0.047-0.133 0.153-0.293 0.317-0.484h0.211v-0.293c-0.114-0.086-0.2-0.141-0.247-0.161-0.093-0.042-0.187-0.019-0.281 0.063v-0.352c0-0.132-0.07-0.175-0.211-0.132l-0.636 0.582v0.097c0 0.086-0.036 0.184-0.106 0.293 0.356 0.039 0.531 0.168 0.531 0.387z" inkscape:connector-curvature="0"/>
      <path id="path174" style="fill-rule:evenodd;fill:#77a32f" d="m15.656 8.706c0.188-0.11 0.235-0.239 0.141-0.387-0.051-0.086-0.129-0.219-0.25-0.387 0.047-0.023 0.176-0.023 0.387 0 0.144 0 0.226-0.035 0.25-0.097-0.754 0-1.211 0.062-1.375 0.191v0.195c0.093 0.024 0.175 0.098 0.246 0.227 0.07 0.148 0.164 0.234 0.281 0.258 0.023-0.063 0.059-0.098 0.109-0.098 0.071 0.023 0.106 0.055 0.106 0.098h0.105z" inkscape:connector-curvature="0"/>
      <path id="path176" style="fill-rule:evenodd;fill:#fcf19f" d="m20.234 7.835c0.422-0.11 0.672-0.176 0.743-0.196 0.117 0 0.257-0.097 0.421-0.289l-0.21-0.097-0.106-0.129c-0.051-0.067-0.117-0.086-0.215-0.067-0.07 0.067-0.176 0.098-0.316 0.098 0.117 0.109 0.105 0.215-0.035 0.324-0.188 0.172-0.282 0.289-0.282 0.356z" inkscape:connector-curvature="0"/>
      <path id="path178" style="fill-rule:evenodd;fill:#f6de6f" d="m20.445 8.608c0.071-0.02 0.145-0.086 0.211-0.191-0.066-0.024-0.148-0.012-0.246 0.031-0.07 0.062-0.164 0.086-0.281 0.062 0.164-0.234 0.449-0.527 0.848-0.871-0.071 0.02-0.321 0.086-0.743 0.196 0.047 0.191-0.058 0.289-0.316 0.289v0.097c0.117 0.02 0.223-0.011 0.316-0.097-0.023 0.086-0.129 0.172-0.316 0.257-0.188 0.067-0.281 0.172-0.281 0.325 0.093 0.105 0.211 0.105 0.351 0 0.164-0.129 0.317-0.16 0.457-0.098z" inkscape:connector-curvature="0"/>
      <path id="path180" style="fill-rule:evenodd;fill:#f6da31" d="m19.355 8.221c-0.257 0.02-0.414-0.011-0.46-0.097h-0.633c-0.024 0.152 0.058 0.238 0.246 0.257 0.234 0.024 0.367 0.067 0.387 0.129 0.285-0.086 0.531-0.019 0.742 0.196 0-0.153 0.093-0.258 0.281-0.325 0.187-0.085 0.297-0.171 0.316-0.257-0.093 0.086-0.199 0.117-0.316 0.097-0.047-0.023-0.234-0.023-0.563 0z" inkscape:connector-curvature="0"/>
      <path id="path182" style="fill-rule:evenodd;fill:#f6da31" d="m20.656 8.413c0.074 0 0.156-0.063 0.25-0.192 0.071-0.086 0.164-0.121 0.282-0.097l0.632-0.582c0.192-0.129 0.438-0.356 0.742-0.68v-0.098c-0.14-0.019-0.246 0.024-0.316 0.129-0.023 0.133-0.058 0.219-0.105 0.262-0.094-0.024-0.082-0.141 0.035-0.356 0.117-0.195 0.14-0.304 0.07-0.324-0.07 0.02-0.141 0.086-0.211 0.196 0.07 0.062 0.047 0.16-0.07 0.289-0.117 0.128-0.238 0.226-0.352 0.293h-0.109c0 0.062-0.035 0.093-0.106 0.093-0.164 0.196-0.304 0.293-0.421 0.293-0.399 0.344-0.684 0.633-0.848 0.871 0.117 0.02 0.215 0 0.285-0.062 0.09-0.043 0.176-0.055 0.242-0.035z" inkscape:connector-curvature="0"/>
      <path id="path184" style="fill-rule:evenodd;fill:#f6de6f" d="m22.242 6.475c0.074 0.024 0.047 0.129-0.07 0.324-0.117 0.215-0.129 0.332-0.035 0.356 0.047-0.043 0.082-0.129 0.105-0.258 0.074-0.109 0.18-0.152 0.317-0.129 0.05-0.129 0.015-0.226-0.106-0.293-0.137-0.086-0.211-0.086-0.211 0z" inkscape:connector-curvature="0"/>
      <path id="path186" style="fill-rule:evenodd;fill:#732f20" d="m21.609 7.253c0.118-0.067 0.235-0.165 0.352-0.293 0.117-0.129 0.141-0.227 0.07-0.289-0.023-0.196-0.164-0.368-0.422-0.516-0.304-0.172-0.48-0.313-0.527-0.422-0.117-0.043-0.234-0.031-0.352 0.031-0.14 0.047-0.273 0.067-0.39 0.067 0.379 0.215 0.648 0.386 0.812 0.515 0.282 0.196 0.469 0.434 0.563 0.711-0.07 0.067-0.106 0.129-0.106 0.196z" inkscape:connector-curvature="0"/>
      <path id="path188" style="fill-rule:evenodd;fill:#fdf8cf" d="m16.992 8.319c0.235-0.109 0.508-0.133 0.813-0.066 0.328 0.085 0.41 0.238 0.246 0.453 0.094 0 0.199 0.062 0.316 0.191 0.024-0.062 0.129-0.117 0.317-0.16 0.164-0.02 0.234-0.098 0.211-0.227-0.02-0.062-0.153-0.105-0.387-0.129-0.188-0.019-0.27-0.105-0.246-0.257h1.058c-0.117-0.172-0.472-0.301-1.058-0.387-0.211 0.019-0.434 0.098-0.668 0.226-0.262 0.149-0.461 0.235-0.602 0.258-0.047-0.129-0.117-0.195-0.211-0.195 0.117 0.109 0.188 0.207 0.211 0.293z" inkscape:connector-curvature="0"/>
      <path id="path190" style="fill-rule:evenodd;fill:#b6181f" d="m19.918 8.221v-0.097c-0.07-0.11-0.27-0.196-0.598-0.258-0.351-0.043-0.566-0.117-0.636-0.227 0.187 0 0.636 0.063 1.339 0.196 0.071-0.067 0.118-0.176 0.141-0.325 0.07-0.129 0.199-0.183 0.391-0.16-0.145-0.109-0.344-0.109-0.602 0-0.305 0.106-0.551 0.141-0.738 0.098 0.047-0.047 0.152-0.11 0.316-0.195 0.141-0.067 0.235-0.129 0.281-0.196 0.024-0.234-0.105-0.332-0.386-0.289 0 0.063 0.047 0.11 0.14 0.129 0.118 0.02 0.164 0.074 0.141 0.16-0.281 0.129-0.504 0.207-0.668 0.227-0.285 0.086-0.473 0.012-0.566-0.227-0.211 0-0.317-0.031-0.317-0.097-0.094-0.063-0.234-0.094-0.422-0.094 0-0.133 0.036-0.219 0.106-0.258 0.07-0.023 0.14 0 0.211 0.063v-0.29c-0.211 0.063-0.387 0.235-0.528 0.516-0.187 0.344-0.328 0.559-0.421 0.645 0.07 0.086 0.21 0.054 0.421-0.094 0.235-0.172 0.411-0.172 0.528 0 0.14 0.019 0.215 0.117 0.215 0.289 0.586 0.086 0.937 0.215 1.054 0.387h-0.422c0.047 0.086 0.2 0.121 0.457 0.097 0.329-0.023 0.516-0.023 0.563 0z" inkscape:connector-curvature="0"/>
      <path id="path192" style="fill-rule:evenodd;fill:#f6de6f" d="m19.109 5.249c-0.093 0.129-0.203 0.191-0.32 0.191-0.07 0.066-0.184 0.129-0.351 0.195-0.188 0.086-0.317 0.153-0.387 0.196-0.024 0.086-0.082 0.136-0.176 0.16-0.141 0.043-0.223 0.074-0.246 0.097 0.07 0.063 0.094 0.118 0.07 0.161-0.023 0.043-0.047 0.019-0.07-0.067l-0.035 0.262c-0.024 0.125-0.117 0.203-0.285 0.223 0 0.109-0.047 0.207-0.141 0.293-0.094 0.128-0.152 0.226-0.176 0.289v0.488c-0.14-0.109-0.211-0.27-0.211-0.484-0.093 0.171-0.187 0.246-0.281 0.226-0.164-0.109-0.309-0.183-0.422-0.226 0.07 0.062 0.106 0.128 0.106 0.195v0.094c0.07 0.086 0.164 0.117 0.281 0.097 0.07-0.019 0.176-0.054 0.316-0.097v0.293c0.188 0 0.399-0.067 0.633-0.196 0.211-0.148 0.426-0.215 0.637-0.191-0.117-0.176-0.293-0.176-0.531 0-0.211 0.148-0.352 0.18-0.422 0.094 0.093-0.086 0.234-0.301 0.422-0.645 0.14-0.281 0.32-0.453 0.531-0.519 0-0.172 0.14-0.301 0.422-0.387 0.023-0.02 0.129-0.051 0.316-0.098 0.117-0.019 0.188-0.074 0.211-0.16l0.633-0.484c-0.071 0.3 0.027 0.336 0.285 0.097 0.023-0.129-0.023-0.25-0.141-0.355-0.117-0.129-0.234-0.141-0.351-0.031-0.071 0.125-0.176 0.222-0.317 0.289z" inkscape:connector-curvature="0"/>
      <path id="path194" style="fill-rule:evenodd;fill:#b6181f" d="m19.918 8.124c0.258 0 0.363-0.098 0.316-0.289 0-0.067 0.094-0.184 0.282-0.356 0.14-0.109 0.152-0.219 0.039-0.324 0.136 0 0.246-0.031 0.316-0.098-0.281-0.191-0.601-0.344-0.953-0.449-0.422-0.129-0.797-0.141-1.125-0.035-0.027 0.066-0.129 0.098-0.316 0.098 0 0.062 0.105 0.097 0.316 0.097-0.141 0.129-0.352 0.192-0.637 0.192 0 0.066 0.106 0.097 0.317 0.097 0.168 0.024 0.328-0.019 0.496-0.129 0.187-0.105 0.34-0.16 0.457-0.16 0.281-0.043 0.41 0.055 0.386 0.289-0.046 0.067-0.14 0.129-0.281 0.196-0.164 0.085-0.273 0.148-0.316 0.195 0.187 0.043 0.433 0.008 0.738-0.098 0.258-0.109 0.457-0.109 0.602 0-0.192-0.023-0.321 0.031-0.391 0.16-0.023 0.149-0.07 0.258-0.141 0.325-0.703-0.133-1.148-0.196-1.339-0.196 0.07 0.11 0.285 0.184 0.636 0.227 0.328 0.062 0.528 0.148 0.598 0.258z" inkscape:connector-curvature="0"/>
      <path id="path196" style="fill-rule:evenodd;fill:#77a32f" d="m22.562 6.862c-0.308 0.324-0.55 0.551-0.742 0.68 0.141-0.043 0.211 0 0.211 0.129v0.355c0.094-0.086 0.188-0.105 0.285-0.063 0.047 0.02 0.129 0.075 0.246 0.161 0.329-0.063 0.446-0.227 0.352-0.485-0.047-0.152-0.164-0.41-0.352-0.777z" inkscape:connector-curvature="0"/>
      <path id="path198" style="fill-rule:evenodd;fill:#fcf19f" d="m9.488 7.835c0.024 0.105 0.106 0.14 0.246 0.093 0.141-0.019 0.235-0.05 0.282-0.093-0.235-0.305-0.551-0.434-0.954-0.387 0.098 0.105 0.227 0.16 0.391 0.16 0.188 0.02 0.34 0.063 0.457 0.129-0.023 0.043-0.082 0.074-0.176 0.098h-0.246z" inkscape:connector-curvature="0"/>
      <path id="path200" style="fill-rule:evenodd;fill:#77a32f" d="m14.598 7.737c0.164 0 0.34-0.055 0.527-0.16 0.187-0.11 0.363-0.153 0.531-0.129-0.097-0.176-0.238-0.305-0.426-0.391 0.071 0.067 0.106 0.129 0.106 0.196-0.281-0.067-0.492-0.196-0.633-0.387h-0.211c0.024 0.043 0.024 0.226 0 0.547-0.023 0.238 0.012 0.379 0.106 0.422v-0.098z" inkscape:connector-curvature="0"/>
      <path id="path202" style="fill-rule:evenodd;fill:#fdf8cf" d="m17.383 6.475c-0.121 0.129-0.215 0.196-0.285 0.196-0.024-0.086 0-0.172 0.07-0.258 0.047-0.067 0.059-0.141 0.035-0.227-0.258 0.11-0.492 0.141-0.703 0.098h-0.742c-0.164 0.019 0 0.117 0.496 0.289 0.398 0.148 0.574 0.086 0.527-0.195l0.317 0.39c-0.141 0.172-0.211 0.332-0.211 0.485h0.105c0.024-0.067 0.082-0.165 0.176-0.293 0.094-0.086 0.141-0.184 0.141-0.289l0.211-0.196c-0.02-0.086-0.067-0.086-0.137 0z" inkscape:connector-curvature="0"/>
      <path id="path204" style="fill-rule:evenodd;fill:#fcf19f" d="m15.02 6.284c0.398 0.277 0.75 0.601 1.058 0.969 0.117 0.043 0.258 0.117 0.422 0.226 0.094 0.02 0.188-0.055 0.281-0.226 0 0.214 0.071 0.375 0.211 0.484v-0.484h-0.105c0-0.153 0.07-0.313 0.211-0.485l-0.317-0.39c0.047 0.281-0.129 0.347-0.527 0.195-0.492-0.172-0.656-0.27-0.492-0.289l-0.211-0.098c-0.356-0.043-0.531-0.226-0.531-0.551-0.094 0-0.153 0.078-0.176 0.227-0.024 0.129-0.071 0.203-0.141 0.226 0.024 0.043 0.082 0.075 0.176 0.098 0.094 0 0.141 0.031 0.141 0.098z" inkscape:connector-curvature="0"/>
      <path id="path206" style="fill-rule:evenodd;fill:#c4c2c1" d="m15.23 7.057c-0.07 0-0.152-0.054-0.246-0.16-0.07-0.109-0.164-0.152-0.281-0.129v0.094c0.141 0.195 0.352 0.324 0.633 0.391 0-0.067-0.035-0.129-0.106-0.196z" inkscape:connector-curvature="0"/>
      <path id="path208" style="fill-rule:evenodd;fill:#732f20" d="m21.188 7.253 0.21 0.093c0.071 0 0.106-0.031 0.106-0.093-0.164-0.692-0.762-1.11-1.797-1.262 0.516 0.215 0.848 0.398 0.984 0.551 0.168 0.238 0.332 0.472 0.497 0.711z" inkscape:connector-curvature="0"/>
      <path id="path210" style="fill-rule:evenodd;fill:#77a32f" d="m19.215 6.088c-0.051-0.085-0.223-0.085-0.531 0-0.211 0.063-0.282 0.063-0.211 0v-0.097c-0.282 0.086-0.422 0.215-0.422 0.387v0.386c0.094 0 0.211-0.031 0.351-0.093 0.118-0.086 0.246-0.122 0.387-0.098 0.328-0.11 0.707-0.098 1.129 0.031 0.352 0.109 0.668 0.258 0.949 0.453 0.094-0.023 0.164 0 0.215 0.063l0.106 0.133c-0.168-0.239-0.333-0.477-0.497-0.715-0.14-0.149-0.468-0.332-0.984-0.547-0.211 0-0.375 0.031-0.492 0.097z" inkscape:connector-curvature="0"/>
      <path id="path212" style="fill-rule:evenodd;fill:#f6da31" d="m19.707 5.991c0.047-0.086 0.117-0.203 0.211-0.356h0.211c0.285 0.024 0.387-0.074 0.316-0.289h-0.527c-0.258 0.235-0.352 0.203-0.281-0.097l-0.637 0.484c0.051 0 0.117-0.02 0.215-0.066 0.07-0.043 0.14-0.051 0.211-0.032 0.023 0.086-0.012 0.161-0.106 0.227-0.093 0.043-0.129 0.117-0.105 0.226 0.117-0.066 0.281-0.097 0.492-0.097z" inkscape:connector-curvature="0"/>
      <path id="path214" style="fill-rule:evenodd;fill:#fcf19f" d="m17.629 5.733c-0.024-0.109-0.188-0.074-0.496 0.098-0.328 0.172-0.539 0.32-0.633 0.453 0.211 0.043 0.445 0.008 0.707-0.098 0.02 0.086 0.012 0.16-0.039 0.227-0.07 0.082-0.09 0.172-0.07 0.258 0.07 0 0.164-0.067 0.285-0.196 0.07-0.086 0.117-0.086 0.14 0l-0.211 0.196c0.165-0.024 0.258-0.098 0.282-0.227l0.035-0.258c0.023 0.086 0.047 0.106 0.07 0.063 0.024-0.043 0-0.098-0.07-0.161-0.047-0.085-0.094-0.152-0.141-0.195-0.023-0.043 0.024-0.097 0.141-0.16z" inkscape:connector-curvature="0"/>
      <path id="path216" style="fill-rule:evenodd;fill:#c4c2c1" d="m18.789 6.573c-0.141-0.02-0.269 0.012-0.387 0.098-0.14 0.062-0.257 0.097-0.351 0.097v-0.097c-0.071-0.067-0.141-0.086-0.211-0.067-0.07 0.043-0.106 0.129-0.106 0.258 0.188 0 0.328 0.035 0.422 0.098 0.282 0 0.492-0.063 0.633-0.192-0.211 0-0.316-0.035-0.316-0.097 0.187 0 0.293-0.032 0.316-0.098z" inkscape:connector-curvature="0"/>
      <path id="path218" style="fill-rule:evenodd;fill:#fdf8cf" d="m14.598 7.835c-0.094-0.043-0.129-0.184-0.106-0.422 0.024-0.321 0.024-0.504 0-0.551h0.211v-0.094c-0.023-0.152 0.012-0.312 0.106-0.484h0.211c0-0.067-0.047-0.098-0.141-0.098-0.094-0.023-0.152-0.055-0.176-0.098 0.07-0.019 0.117-0.097 0.141-0.226 0.023-0.149 0.082-0.227 0.176-0.227 0.164-0.3 0.304-0.461 0.425-0.484v-0.094c-0.05-0.195-0.086-0.293-0.109-0.293-0.398 0.258-0.68 0.668-0.844 1.227-0.187 0.324-0.246 0.777-0.176 1.359 0.071 0.582 0.235 0.871 0.493 0.871v-0.191c-0.047-0.133-0.118-0.195-0.211-0.195z" inkscape:connector-curvature="0"/>
      <path id="path220" style="fill-rule:evenodd;fill:#f6de6f" d="m15.02 5.635c0 0.325 0.175 0.508 0.527 0.551-0.164-0.066-0.281-0.172-0.352-0.324-0.093-0.172-0.047-0.313 0.141-0.418l0.109-0.293c-0.121 0.023-0.261 0.184-0.425 0.484z" inkscape:connector-curvature="0"/>
      <path id="path222" style="fill-rule:evenodd;fill:#732f20" d="m18.367 4.862c-0.281 0.301-0.457 0.559-0.527 0.773-0.024 0.086 0.047 0.153 0.211 0.196 0.07-0.043 0.199-0.11 0.387-0.196 0.167-0.066 0.285-0.129 0.351-0.191-0.234-0.109-0.375-0.301-0.422-0.582z" inkscape:connector-curvature="0"/>
      <path id="path224" style="fill-rule:evenodd;fill:#77a32f" d="m15.336 5.444c0.07 0 0.141 0.051 0.211 0.16 0.098 0.109 0.199 0.149 0.316 0.129 0-0.066-0.07-0.098-0.211-0.098 0.047-0.105 0.2-0.16 0.457-0.16 0.215 0.02 0.403 0.074 0.567 0.16 0.14-0.043 0.211-0.011 0.211 0.098 0.304-0.152 0.48-0.281 0.527-0.387-0.094 0-0.199-0.031-0.316-0.097-0.094-0.086-0.2-0.118-0.317-0.098 0.235-0.41 0.586-0.539 1.059-0.387-0.07 0.067-0.106 0.129-0.106 0.192 0.188-0.039 0.258-0.172 0.211-0.387-0.234-0.02-0.789-0.117-1.656-0.289v0.098h0.106l-0.247 0.418c-0.14 0.152-0.304 0.238-0.492 0.257v-0.097l-0.215 0.097v0.098l-0.105 0.293z" inkscape:connector-curvature="0"/>
      <path id="path226" style="fill-rule:evenodd;fill:#732f20" d="m17.418 5.346c0.094 0.02 0.152-0.031 0.176-0.164 0.023-0.148 0.07-0.226 0.14-0.226 0-0.063 0.036-0.125 0.106-0.192-0.469-0.152-0.82-0.019-1.059 0.387 0.117-0.02 0.223 0.012 0.317 0.098 0.117 0.062 0.222 0.097 0.32 0.097z" inkscape:connector-curvature="0"/>
      <path id="path228" style="fill-rule:evenodd;fill:#732f20" d="m19.215 5.667c-0.094 0.046-0.164 0.066-0.215 0.066-0.02 0.086-0.094 0.141-0.211 0.16-0.187 0.043-0.293 0.078-0.316 0.098v0.097c-0.071 0.063 0 0.063 0.211 0 0.308-0.085 0.484-0.085 0.531 0-0.024-0.109 0.012-0.183 0.105-0.226 0.094-0.066 0.129-0.141 0.106-0.227-0.071-0.023-0.141-0.011-0.211 0.032z" inkscape:connector-curvature="0"/>
      <path id="path230" style="fill-rule:evenodd;fill:#fcf19f" d="m15.867 5.733c0.071 0.063 0.246 0.098 0.528 0.098 0.257 0 0.421-0.035 0.492-0.098 0-0.109-0.071-0.141-0.211-0.098-0.024 0.067-0.141 0.098-0.352 0.098-0.258-0.02-0.41-0.02-0.457 0z" inkscape:connector-curvature="0"/>
      <path id="path232" style="fill-rule:evenodd;fill:#fdf8cf" d="m15.441 4.667c0.141-0.043 0.59-0.27 1.34-0.68-0.328 0-0.703 0.129-1.125 0.391-0.121 0.105-0.191 0.203-0.215 0.289z" inkscape:connector-curvature="0"/>
      <path id="path234" style="fill-rule:evenodd;fill:#fdf8cf" d="m17.203 9.741c0.117 0.105 0.328 0.148 0.637 0.129 0.328-0.024 0.469-0.129 0.422-0.324h-0.422v0.097c-0.211 0.106-0.422 0.141-0.637 0.098z" inkscape:connector-curvature="0"/>
      <path id="path236" style="fill-rule:evenodd;fill:#732f20" d="m15.547 9.061c0.164 0.043 0.297 0.012 0.387-0.098 0.074-0.085 0.05-0.171-0.071-0.257-0.019 0-0.082 0.019-0.175 0.062-0.071 0.024-0.118 0-0.141-0.062 0-0.043-0.035-0.075-0.106-0.098-0.046 0-0.082 0.035-0.105 0.098v0.097c0.141 0.02 0.211 0.106 0.211 0.258z" inkscape:connector-curvature="0"/>
      <path id="path238" style="fill-rule:evenodd;fill:#b6181f" d="m19.637 8.963c-0.071 0-0.317 0.043-0.742 0.129-0.282 0.086-0.457 0.043-0.528-0.129-0.234-0.128-0.422-0.226-0.562-0.289-0.235-0.128-0.473-0.183-0.707-0.164 0 0.047-0.071 0.11-0.211 0.196v0.097c-0.141 0.192-0.246 0.344-0.317 0.453 0.235 0.04 0.375 0.106 0.422 0.192 0.258 0.066 0.516 0.055 0.778-0.031 0.328-0.11 0.562-0.161 0.703-0.161 0.257 0.04 0.613-0.023 1.058-0.195 0.047 0.063 0.059 0.141 0.035 0.227-0.046 0.105-0.023 0.191 0.071 0.258-0.188-0.067-0.403-0.032-0.637 0.097 0 0.043-0.047 0.106-0.141 0.192-0.093 0.043-0.082 0.078 0.036 0.097 0.351-0.105 0.578-0.183 0.671-0.226 0.211-0.106 0.329-0.258 0.352-0.45-0.047 0-0.094-0.054-0.141-0.164-0.023-0.086-0.07-0.129-0.14-0.129z" inkscape:connector-curvature="0"/>
      <path id="path240" style="fill-rule:evenodd;fill:#fcf19f" d="m15.758 7.542c-0.137 0.023-0.211 0.086-0.211 0.195 0.074 0.019 0.262 0.019 0.566 0 0.258-0.024 0.41 0.012 0.457 0.098l0.211 0.093v-0.386c-0.14 0.043-0.246 0.078-0.316 0.097-0.117 0.02-0.211-0.011-0.281-0.097h-0.426z" inkscape:connector-curvature="0"/>
      <path id="path242" style="fill-rule:evenodd;fill:#b6181f" d="m20.34 5.831c0-0.086-0.07-0.153-0.211-0.196h-0.211c-0.094 0.153-0.164 0.27-0.211 0.356 1.031 0.152 1.633 0.57 1.797 1.262h0.105c0-0.067 0.036-0.129 0.106-0.196-0.094-0.281-0.281-0.515-0.563-0.711-0.164-0.129-0.433-0.3-0.812-0.515z" inkscape:connector-curvature="0"/>
      <path id="path244" style="fill-rule:evenodd;fill:#77a32f" d="m18.051 5.831c-0.164-0.043-0.235-0.11-0.211-0.196-0.07 0.067-0.145 0.098-0.215 0.098-0.113 0.063-0.164 0.117-0.141 0.16 0.047 0.043 0.094 0.11 0.141 0.195 0.023-0.023 0.109-0.054 0.25-0.097 0.094-0.02 0.152-0.074 0.176-0.16z" inkscape:connector-curvature="0"/>
      <path id="path246" style="fill-rule:evenodd;fill:#fdf8cf" d="m16.676 5.635c-0.164-0.086-0.352-0.14-0.563-0.16-0.258 0-0.414 0.055-0.457 0.16 0.141 0 0.211 0.032 0.211 0.098 0.047-0.02 0.199-0.02 0.457 0 0.211 0 0.328-0.031 0.352-0.098z" inkscape:connector-curvature="0"/>
      <path id="path248" style="fill-rule:evenodd;fill:#b6181f" d="m18.789 5.444c0.117 0 0.227-0.066 0.32-0.195-0.05-0.153-0.226-0.25-0.531-0.293-0.094 0-0.129-0.032-0.105-0.094h-0.106c0.047 0.281 0.188 0.473 0.422 0.582z" inkscape:connector-curvature="0"/>
      <path id="path250" style="fill-rule:evenodd;fill:#f6da31" d="m15.195 5.862c0.071 0.152 0.188 0.258 0.352 0.324l0.211 0.098h0.742c0.094-0.133 0.305-0.281 0.633-0.453 0.308-0.172 0.472-0.207 0.496-0.098 0.07 0 0.141-0.031 0.211-0.098 0.07-0.214 0.246-0.472 0.527-0.773h0.106c0-0.066 0.023-0.141 0.07-0.227s0.062-0.175 0.035-0.257c-0.164-0.067-0.281-0.067-0.351 0-0.094 0.082-0.188 0.148-0.282 0.191 0.047 0.215-0.023 0.348-0.211 0.387-0.07 0-0.117 0.078-0.14 0.226-0.024 0.129-0.082 0.184-0.176 0.164-0.051 0.106-0.227 0.235-0.531 0.387-0.071 0.063-0.235 0.098-0.492 0.098-0.282 0-0.457-0.035-0.528-0.098-0.117 0.02-0.222-0.023-0.316-0.129-0.071-0.109-0.145-0.164-0.215-0.164-0.188 0.109-0.234 0.25-0.141 0.422z" inkscape:connector-curvature="0"/>
      <path id="path252" style="fill-rule:evenodd;fill:#b8952e" d="m22.809 8.413c-0.02 0.07-0.036 0.144-0.055 0.226 0.062 0.043 0.125 0.067 0.195 0.067 0-0.129-0.047-0.227-0.14-0.293zm-0.055 0.23c-0.016-0.019-0.031-0.043-0.051-0.066-0.07-0.086-0.117-0.141-0.141-0.16h-0.21c-0.168 0.191-0.274 0.351-0.321 0.484 0.051 0 0.145-0.035 0.285-0.098 0.118-0.043 0.235-0.043 0.352 0 0.047 0.172-0.035 0.282-0.246 0.321-0.262 0.066-0.391 0.14-0.391 0.226v0.391c0.356-0.09 0.578-0.348 0.672-0.778 0.02-0.117 0.039-0.226 0.051-0.32zm0.195-0.617c0.047-0.043 0.153-0.141 0.317-0.289 0.164-0.129 0.246-0.238 0.246-0.324s-0.141-0.332-0.422-0.742c-0.281-0.387-0.481-0.625-0.598-0.711-1.41-1.012-2.75-1.704-4.019-2.071-0.118 0.024-0.235 0.012-0.352-0.031s-0.211-0.062-0.281-0.062c-0.117 0.019-0.235 0.007-0.352-0.036s-0.211-0.062-0.281-0.062c-0.145-0.024-0.309-0.012-0.496 0.031-0.188 0.067-0.363 0.086-0.527 0.067h-0.211c-0.379 0.148-0.93 0.32-1.657 0.515-0.871 0.215-1.433 0.367-1.691 0.453 0 0.086-0.059 0.141-0.176 0.16-0.144 0.043-0.191 0.118-0.144 0.227 0.332 0 0.859-0.117 1.586-0.355 0.636-0.196 1.117-0.27 1.445-0.227-0.094-0.063-0.141-0.172-0.141-0.32-0.023-0.153 0.024-0.176 0.141-0.067-0.07 0.02-0.094 0.055-0.07 0.098 0.046 0.043 0.105 0.074 0.175 0.098l0.036-0.129c0-0.047 0.023-0.067 0.07-0.067l0.109 0.196c0.422-0.262 0.797-0.391 1.125-0.391-0.75 0.41-1.199 0.637-1.34 0.68-0.093 0-0.129 0.031-0.105 0.097 0.023 0 0.059 0.098 0.105 0.289l0.215-0.097c0.141-0.235 0.352-0.43 0.633-0.578v-0.098c0.867 0.172 1.422 0.269 1.656 0.289 0.094-0.043 0.188-0.109 0.282-0.191 0.07-0.067 0.187-0.067 0.351 0 0.07 0.082 0.188 0.171 0.352 0.257l0.39 0.227c-0.027 0.062 0.012 0.094 0.106 0.094 0.117-0.106 0.234-0.094 0.351 0.035 0.118 0.105 0.164 0.226 0.141 0.355h0.527c0.071 0.215-0.035 0.313-0.316 0.289 0.141 0.043 0.211 0.11 0.211 0.196 0.117 0 0.25-0.024 0.387-0.067 0.117-0.066 0.238-0.074 0.355-0.031 0.047 0.105 0.223 0.246 0.527 0.418 0.258 0.152 0.399 0.324 0.422 0.516 0.071-0.106 0.141-0.172 0.211-0.192 0-0.086 0.07-0.086 0.211 0 0.117 0.063 0.152 0.16 0.106 0.289v0.098c0.191 0.367 0.308 0.625 0.355 0.777 0.094 0.258-0.023 0.418-0.355 0.485v0.093c0.121 0.067 0.203 0.129 0.25 0.196 0.05-0.207 0.097-0.336 0.14-0.387z" inkscape:connector-curvature="0"/>
      <path id="path254" style="fill-rule:evenodd;fill:#b8952e" d="m23.582 7.479c0.023-0.219 0.012-0.324-0.035-0.324-0.07 0-0.258 0.141-0.563 0.422-0.046 0.32-0.117 0.558-0.211 0.711-0.308 0.258-0.496 0.504-0.566 0.742-0.047 0.129-0.129 0.234-0.246 0.324-0.211 0.172-0.352 0.289-0.422 0.356-0.375 0.535-0.684 0.847-0.918 0.933-0.141 0.043-0.281 0.067-0.422 0.067h-0.176l0.211 0.484 0.633-0.258c0.473-0.238 0.895-0.527 1.27-0.875 0.847-0.773 1.293-1.418 1.34-1.937 0-0.024 0.035-0.239 0.105-0.645z" inkscape:connector-curvature="0"/>
      <path id="path256" style="fill-rule:evenodd;fill:#ffeba6" d="m12.094 13.389c-1.785 0.086-2.852 0.129-3.207 0.129-1.196 0.024-2.114-0.051-2.746-0.222 0.515 0.472 1.492 0.707 2.921 0.707 1.364 0 2.376-0.204 3.032-0.614z" inkscape:connector-curvature="0"/>
      <path id="path258" style="fill-rule:evenodd;fill:#f5cd53" d="m10.227 8.124c0.285 0.062 0.433 0 0.461-0.196 0-0.191-0.133-0.312-0.391-0.351-0.258-0.047-0.422 0.008-0.492 0.16-0.047 0.172 0.093 0.301 0.422 0.387z" inkscape:connector-curvature="0"/>
      <path id="path260" style="fill-rule:evenodd;fill:#f5cd53" d="m4.203 10.288c0.188 0.086 0.469 0 0.844-0.258 0.375-0.238 0.41-0.41 0.105-0.516-0.328-0.129-0.621-0.066-0.879 0.192-0.257 0.238-0.285 0.433-0.07 0.582z" inkscape:connector-curvature="0"/>
      <path id="path262" style="fill-rule:evenodd;fill:#f5cd53" d="m6.703 10.323c0.211 0.148 0.41 0.16 0.598 0.031 0.187-0.152 0.164-0.301-0.071-0.453-0.21-0.172-0.398-0.184-0.562-0.031-0.164 0.172-0.152 0.32 0.035 0.453z" inkscape:connector-curvature="0"/>
      <path id="path264" style="fill-rule:evenodd;fill:#fadf88" d="m15.582 12.585c-1.668 0.343-2.676 0.535-3.027 0.578l-2.328 0.164c-0.352 0.019-0.61 0.008-0.774-0.035-0.094-0.043-0.351-0.18-0.777-0.418-0.258-0.172-0.516-0.207-0.774-0.098-0.402 0.129-0.73 0.195-0.988 0.195-0.398-0.023-0.988-0.183-1.762-0.484l-1.023-0.453 0.742 0.777c0.141 0.149 0.82 0.449 2.043 0.902l1.445 0.098c1.008 0.067 1.645 0.086 1.903 0.067l5.32-1.293z" inkscape:connector-curvature="0"/>
      <path id="path266" style="fill-rule:evenodd;fill:#e0b538" d="m3.426 8.546 1.937-0.68c1.387-0.496 2.364-0.809 2.926-0.938 1.106-0.281 1.703-0.418 1.797-0.418 0.637-0.089 1.328 0.02 2.078 0.321 0.684 0.281 1.258 0.679 1.727 1.195 0.472 0.582 0.859 1.023 1.164 1.324 0.515 0.496 0.847 0.809 0.988 0.938 0.211 0.195 0.445 0.312 0.703 0.355 0.399 0.043 0.731 0.031 0.988-0.031-0.8-0.172-1.41-0.43-1.836-0.777-0.113-0.086-0.714-0.711-1.793-1.875-0.238-0.235-0.46-0.493-0.671-0.774-0.211-0.215-0.516-0.422-0.918-0.617-1.008-0.473-2.043-0.57-3.102-0.289-0.352 0.086-0.926 0.289-1.726 0.613-0.61 0.238-1.032 0.36-1.266 0.36-0.262 0-0.836 0.214-1.727 0.644l-1.269 0.649z" inkscape:connector-curvature="0"/>
      <path id="path268" style="fill-rule:evenodd;fill:#77a32f" d="m2.234 7.835c0.434 0.152 0.809 0.226 1.129 0.226l2.563-1.105c1.773-0.754 2.855-1.176 3.242-1.266 0.617-0.129 2.027-0.648 4.238-1.555-0.75-0.066-1.367-0.097-1.844-0.097-0.32 0-0.593-0.098-0.82-0.293-0.16-0.11-0.41-0.324-0.754-0.649-0.25-0.218-0.59-0.195-1.023 0.067-0.434 0.324-0.742 0.539-0.922 0.648-0.227 0.149-0.434 0.149-0.613 0-0.047-0.023-0.266-0.226-0.653-0.617-0.339-0.348-0.75-0.176-1.226 0.519-0.617 0-1.164-0.035-1.641-0.097-0.297-0.047-0.355-0.012-0.172 0.097 0.387 0.258 0.617 0.434 0.684 0.516 0.183 0.176 0.285 0.348 0.308 0.52v0.23c-0.296-0.152-0.617-0.262-0.957-0.328-0.683-0.129-1.128-0.02-1.332 0.328-0.207 0.344-0.148 0.649 0.168 0.906l0.547 0.325c-0.613 0.218-1.094 0.531-1.433 0.941-0.227 0.262-0.059 0.488 0.511 0.684z" inkscape:connector-curvature="0"/>
      <path id="path270" style="fill-rule:evenodd;fill:#8dc238" d="m2.953 7.444-0.207 0.133c0.137-0.219 1.004-0.563 2.598-1.039-0.614-0.11-0.965-0.184-1.059-0.227 0.25-0.109 0.695-0.176 1.332-0.195-0.113-0.692 1.242-1.117 4.067-1.266-0.067-0.262-0.239-0.445-0.512-0.554-0.25-0.086-0.524-0.094-0.82-0.032-0.024 0.219-0.227 0.391-0.618 0.52-0.386 0.152-0.691 0.172-0.922 0.066-0.113-0.043-0.214-0.25-0.304-0.617-0.094-0.262-0.297-0.359-0.617-0.293-0.047 0.215-0.059 0.367-0.036 0.453-0.5-0.41-0.785-0.41-0.851 0 0.023 0.563-0.012 0.887-0.102 0.973-0.183 0.176-0.523 0.207-1.027 0.097-0.566-0.191-0.945-0.289-1.125-0.289 0.203 0.282 0.453 0.516 0.75 0.715-0.273 0.367-0.422 0.746-0.445 1.133-0.524-0.086-0.727 0.012-0.614 0.293 0.114 0.324 0.282 0.367 0.512 0.129z" inkscape:connector-curvature="0"/>
      <path id="path272" style="fill-rule:evenodd;fill:#638727" d="m2.953 7.866-0.101 0.195c0.796-0.086 1.695-0.348 2.699-0.777 0.566-0.262 1.433-0.653 2.594-1.168 0.617-0.238 1.605-0.52 2.972-0.848 1.344-0.301 2.336-0.582 2.973-0.844-0.137-0.238-0.457-0.386-0.957-0.453-0.567-0.043-0.957-0.086-1.16-0.129-1.071-0.433-1.868-0.671-2.391-0.714 1.023 0.8 1.606 1.265 1.742 1.394-0.363 0.238-0.898 0.391-1.605 0.457-0.797 0.043-1.356 0.141-1.676 0.289-0.18 0.281-0.352 0.453-0.512 0.52-0.09 0.043-0.332 0.109-0.715 0.195-0.32-0.043-0.535-0.066-0.652-0.066-0.203 0-0.273 0.195-0.203 0.586-0.207 0.019-0.445 0.105-0.719 0.257-0.316 0.219-0.558 0.348-0.715 0.391-0.117 0.02-0.582 0.043-1.402 0.062-0.613 0-1.012 0.122-1.195 0.36 0.113 0.109 0.308 0.183 0.582 0.226 0.203 0.067 0.351 0.09 0.441 0.067z" inkscape:connector-curvature="0"/>
      <path id="path274" style="fill-rule:evenodd;fill:#638727" d="m23.859 4.713c-0.308-0.199-0.906-0.296-1.8-0.296-0.036-0.696-0.516-0.887-1.446-0.567-0.855 0.317-1.258 0.11-1.203-0.625-0.328 0.059-0.844 0.086-1.555 0.086 1.711 0.738 3.348 1.988 4.915 3.758l-0.274 0.238c0.418 0.063 0.82 0.063 1.199 0 0.621-0.136 0.914-0.367 0.875-0.683-0.015-0.161-0.152-0.348-0.41-0.567-0.344-0.277-0.543-0.457-0.598-0.539 0.145-0.137 0.243-0.406 0.297-0.805z" inkscape:connector-curvature="0"/>
    </g>
  </g>
<metadata><rdf:RDF><cc:Work><dc:format>image/svg+xml</dc:format><dc:type rdf:resource="http://purl.org/dc/dcmitype/StillImage"/><cc:license rdf:resource="http://creativecommons.org/licenses/publicdomain/"/><dc:publisher><cc:Agent rdf:about="http://openclipart.org/"><dc:title>Openclipart</dc:title></cc:Agent></dc:publisher></cc:Work><cc:License rdf:about="http://creativecommons.org/licenses/publicdomain/"><cc:permits rdf:resource="http://creativecommons.org/ns#Reproduction"/><cc:permits rdf:resource="http://creativecommons.org/ns#Distribution"/><cc:permits rdf:resource="http://creativecommons.org/ns#DerivativeWorks"/></cc:License></rdf:RDF></metadata></svg>
