<svg id="Capa_1" enable-background="new 0 0 512 512" height="512" viewBox="0 0 512 512" width="512" xmlns="http://www.w3.org/2000/svg"><g><circle cx="256" cy="256" fill="#dff6fd" r="256"/><circle cx="256" cy="256" fill="#99e6fc" r="183.887"/><path d="m355.43 20.029c76.166 44.354 127.368 126.878 127.368 221.37 0 141.385-114.615 256-256 256-35.263 0-68.86-7.132-99.43-20.029 37.798 22.011 81.739 34.63 128.632 34.63 141.385 0 256-114.615 256-256 0-106.121-64.573-197.159-156.57-235.971z" fill="#c8effe"/><path d="m195.018 452.177.085-.026c17.184-5.302 35.569-4.737 52.556 1.168 30.126 10.472 65.549 6.957 96.194-15.879 17.847-13.3 17.289-19.963 40.865-43.927 11.542-11.732 16.972-28.163 14.695-44.462-1.842-13.187-8.511-24.874-18.273-33.123-7.758-6.555-14.75-13.947-21.108-21.868-25.296-31.519-68.221-46.159-109.124-33.538l-46.994 14.5c-27.956 8.626-43.625 38.281-34.999 66.237 3.018 9.78-2.464 20.155-12.244 23.173-22.265 6.87-34.745 30.489-27.875 52.754 8.623 27.948 38.272 43.615 66.222 34.991z" fill="#fff2e2"/><path d="m227.826 38.299v182.495c0 5.315 4.309 9.624 9.624 9.624h187.262c8.634 0 12.9-10.49 6.717-16.516l-187.262-182.495c-6.098-5.943-16.341-1.622-16.341 6.892z" fill="#d77f4a"/><g><g><path d="m258.958 157.934c-1.977 0-3.955-.755-5.463-2.263-3.018-3.018-3.018-7.909 0-10.928l27.97-27.97c3.017-3.016 7.909-3.016 10.927 0 3.018 3.018 3.018 7.909 0 10.928l-27.97 27.97c-1.509 1.509-3.486 2.263-5.464 2.263z" fill="#ac5e2e"/></g><g><path d="m284.689 183.665c-1.977 0-3.955-.755-5.463-2.263-3.018-3.018-3.018-7.909 0-10.928l27.97-27.97c3.017-3.016 7.909-3.016 10.927 0 3.018 3.018 3.018 7.909 0 10.928l-27.97 27.97c-1.509 1.508-3.486 2.263-5.464 2.263z" fill="#ac5e2e"/></g><g><path d="m310.42 209.396c-1.977 0-3.955-.755-5.463-2.263-3.018-3.018-3.018-7.909 0-10.928l27.97-27.97c3.017-3.016 7.909-3.016 10.927 0 3.018 3.018 3.018 7.909 0 10.928l-27.97 27.97c-1.509 1.509-3.486 2.263-5.464 2.263z" fill="#ac5e2e"/></g></g><path d="m95.309 349.936c16.468 2.941 31.725-9.558 32.72-26.256 1.592-26.709 9.527-63.57 23.141-102.945s30.141-73.266 45.386-95.254c9.531-13.747 5.252-33-9.515-40.859-1.286-.684-2.621-1.268-4.005-1.746-32.375-11.194-79.205 39.269-104.598 112.712s-19.732 142.054 12.643 153.247c1.384.479 2.794.845 4.228 1.101z" fill="#d83131"/><circle cx="280.555" cy="359.639" fill="#fea613" r="49.882"/><g><path d="m399.413 349.05c-1.842-13.187-8.511-24.874-18.273-33.123-7.758-6.555-14.75-13.947-21.108-21.868-22.171-27.625-57.884-42.281-93.909-36.984 25.334 3.7 48.597 16.911 64.707 36.984 6.357 7.921 13.35 15.313 21.108 21.868 9.762 8.249 16.431 19.937 18.273 33.123 2.277 16.299-3.154 32.73-14.695 44.462-23.576 23.965-23.018 30.628-40.865 43.927-15.334 11.427-31.864 18.016-48.328 20.435 25.465 3.722 53.024-2.173 77.53-20.435 17.847-13.299 17.289-19.962 40.865-43.927 11.541-11.731 16.972-28.162 14.695-44.462z" fill="#ffefd2"/></g><path d="m328.219 344.931c-8.111-26.287-35.967-41.035-62.259-32.989 15.253 4.687 27.997 16.592 33.057 32.989 8.123 26.324-6.633 54.249-32.957 62.372-.038.012-.076.021-.113.032 9.235 2.838 19.388 3.031 29.315-.032 26.324-8.122 41.08-36.047 32.957-62.372z" fill="#fe9901"/><path d="m431.429 213.902-187.262-182.495c-6.098-5.942-16.341-1.622-16.341 6.892v8.487l171.481 167.116c6.183 6.026 1.917 16.517-6.717 16.517h32.122c8.634 0 12.901-10.491 6.717-16.517z" fill="#c86d36"/><path d="m187.042 84.622c-1.286-.684-2.621-1.268-4.005-1.746-7.189-2.485-15.09-1.925-23.311 1.246.345.166.696.32 1.035.5 14.767 7.859 19.046 27.112 9.515 40.859-15.245 21.988-31.772 55.879-45.386 95.254s-21.549 76.236-23.141 102.945c-.608 10.198-6.54 18.822-14.814 23.326 1.33.718 2.711 1.333 4.147 1.829 1.384.479 2.795.845 4.229 1.101 16.468 2.941 31.725-9.557 32.72-26.256 1.592-26.709 9.527-63.57 23.141-102.945s30.142-73.266 45.386-95.254c9.531-13.747 5.252-33-9.516-40.859z" fill="#ca2c2c"/><g fill="#a72b2b"><path d="m117.651 209.145c-2.182 6.31 1.165 13.193 7.475 15.375l22.218 7.682c1.222-3.794 2.496-7.618 3.827-11.467s2.69-7.644 4.073-11.382l-22.218-7.682c-6.309-2.182-13.193 1.164-15.375 7.474z"/><path d="m109.008 266.06c-2.182 6.31 1.165 13.193 7.475 15.375l16.483 5.699c1.482-7.579 3.27-15.516 5.362-23.727l-13.945-4.822c-6.31-2.182-13.193 1.165-15.375 7.475z"/><path d="m177.866 157.271-16.483-5.699c-6.31-2.182-13.193 1.165-15.375 7.475-2.182 6.31 1.165 13.193 7.475 15.375l13.945 4.822c3.427-7.751 6.922-15.097 10.438-21.973z"/></g></g></svg>