<svg id="Capa_1" enable-background="new 0 0 512.712 512.712" viewBox="0 0 512.712 512.712" xmlns="http://www.w3.org/2000/svg"><g><path d="m508.05 271.356c11.4 99.51-1.62 190.74-2.21 194.78-1.07 7.37-7.39 12.84-14.84 12.84-106.51 0-191.71-5.4-260.48-16.51-64.02-10.34-112.55-25.5-148.36-46.34-66.01-38.4-79.99-91.51-81.9-144.77l11.378-15-11.388-15c1.91-53.31 15.83-106.46 81.55-144.77 73.56-42.87 203.58-62.85 409.2-62.85 7.45 0 13.77 5.47 14.84 12.84.59 4.04 13.61 95.27 2.21 194.78l-15.592 15z" fill="#70be21"/><path d="m508.05 271.356c11.4 99.51-1.62 190.74-2.21 194.78-1.07 7.37-7.39 12.84-14.84 12.84-92.36 0-168.69-4.06-232.19-12.38v-420.61c63.42-8.25 140.25-12.25 232.19-12.25 7.45 0 13.77 5.47 14.84 12.84.59 4.04 13.61 95.27 2.21 194.78l-15.592 15z" fill="#539404"/><g><circle cx="116.461" cy="165.664" fill="#753324" r="54.539"/><circle cx="116.461" cy="165.664" fill="#dd4f00" r="24.539"/></g><circle cx="258.808" cy="135.741" fill="#753324" r="54.538"/><path d="m313.35 135.736c0 30.08-24.47 54.54-54.54 54.54v-109.07c30.07 0 54.54 24.46 54.54 54.53z" fill="#60291e"/><path d="m258.808 160.279c-13.531 0-24.539-11.008-24.539-24.538 0-13.531 11.008-24.539 24.539-24.539s24.539 11.008 24.539 24.539c-.001 13.53-11.009 24.538-24.539 24.538z" fill="#e89a18"/><path d="m283.35 135.736c0 13.54-11.01 24.54-24.54 24.54v-49.07c13.53 0 24.54 11 24.54 24.53z" fill="#e17b00"/><g><circle cx="401.154" cy="130.664" fill="#60291e" r="54.539"/><circle cx="401.154" cy="130.664" fill="#f3f3f5" r="24.539"/></g><path d="m496.15 256.356 11.9 15h-507.79c-.19-5-.26-10.01-.26-15s.07-10 .25-15h507.8z" fill="#93eb45"/><path d="m506.15 256.356c.7 5.01 1.33 10.02 1.9 15h-249.24v-30h249.24c-.57 4.98-1.2 9.99-1.9 15z" fill="#70be21"/><ellipse cx="357.462" cy="323.125" fill="#f3f3f5" rx="94.615" ry="94.616" transform="matrix(.973 -.23 .23 .973 -64.677 90.772)"/><ellipse cx="228.231" cy="320.587" fill="#fde07a" rx="79.231" ry="79.231" transform="matrix(.383 -.924 .924 .383 -155.293 408.762)"/><path d="m307.46 320.586c0 32.86-20.1 61.1-48.65 73.09v-146.18c28.55 11.99 48.65 40.23 48.65 73.09z" fill="#ffd355"/><g fill="#fabc36"><circle cx="240.615" cy="369.817" r="15"/><circle cx="179.191" cy="315.114" r="15"/><circle cx="232.575" cy="315.96" r="15"/></g></g></svg>